<svg xmlns="http://www.w3.org/2000/svg" width="138.61" height="158.07" viewBox="0 0 138.61 158.07"><title>Kuaishou logo - Brandlogos.net</title><path d="M425.58,386a27.64,27.64,0,0,1,27.72,27.56v21.89A27.64,27.64,0,0,1,425.58,463H384.82a27.72,27.72,0,0,1-26.35-19l-24.29,12.1a13.49,13.49,0,0,1-18.06-6,13.31,13.31,0,0,1-1.42-6V404.95A13.47,13.47,0,0,1,334.22,393l24.18,12.17A27.72,27.72,0,0,1,384.82,386h40.77Zm-.17,14.19H385.23a13.82,13.82,0,0,0-13.86,13.55v21.3A13.82,13.82,0,0,0,385,448.85h40.18A13.82,13.82,0,0,0,439,435.3V414A13.82,13.82,0,0,0,425.41,400.21Zm-92.78,8.55a3.66,3.66,0,0,0-3.67,3.58V437a3.68,3.68,0,0,0,5.28,3.28l.06,0,22.8-11.56v-8.18l-22.82-11.38A3.69,3.69,0,0,0,332.63,408.76ZM366.47,305A37.53,37.53,0,0,1,399.21,324a32,32,0,1,1-4.14,42.34A37.41,37.41,0,1,1,366.47,305Zm0,15a22.29,22.29,0,1,0,22.42,22.29A22.35,22.35,0,0,0,366.47,320ZM421.1,330.5a17.07,17.07,0,0,0-17.12,17h0a17.07,17.07,0,0,0,17.12,17h0a17.07,17.07,0,0,0,17.12-17h0a17.07,17.07,0,0,0-17.12-17Z" transform="translate(-314.69 -304.96)" style="fill:#ff4906"/></svg>